<?xml version="1.0" encoding="utf-8"?>
<!-- Generator: Adobe Illustrator 23.1.0, SVG Export Plug-In . SVG Version: 6.00 Build 0)  -->
<svg version="1.1" id="Layer_1" xmlns="http://www.w3.org/2000/svg" xmlns:xlink="http://www.w3.org/1999/xlink" x="0px" y="0px"
	 viewBox="0 0 1920 1080" style="enable-background:new 0 0 1920 1080;" xml:space="preserve">
<style type="text/css">
	.st0{fill:#E6E6E6;}
	.st1{fill:#B3B3B3;}
	.st2{fill:#FFFFFF;}
	.st3{fill:#4D4D4D;}
	.st4{font-family:'HarlowSolid';}
	.st5{font-size:36px;}
	.st6{font-family:'MyriadPro-Regular';}
	.st7{font-size:14px;}
	.st8{font-size:28px;}
	.st9{font-family:'FranklinGothic-HeavyItalic';}
	.st10{fill:#E6E6E6;stroke:#000000;stroke-miterlimit:10;}
	.st11{fill:#FFFFFF;stroke:#000000;stroke-miterlimit:10;}
</style>
<g>
	<rect x="60.5" y="51.5" class="st0" width="1795" height="988"/>
	<path d="M1855,52v987H61V52H1855 M1856,51H60v989h1796V51L1856,51z"/>
</g>
<g>
	<rect x="323.5" y="191.5" class="st1" width="1240" height="469"/>
	<path d="M1563,192v468H324V192H1563 M1564,191H323v470h1241V191L1564,191z"/>
</g>
<g>
	<rect x="485.5" y="72.5" class="st2" width="885" height="81"/>
	<path d="M1370,73v80H486V73H1370 M1371,72H485v82h886V72L1371,72z"/>
</g>
<text transform="matrix(1 0 0 1 726.291 110.4175)" class="st3 st4 st5">Let’s Examine my Habits.....</text>
<text transform="matrix(1 0 0 1 839.2656 136)" class="st6 st7">Exploring the Process Blog</text>
<g>
	<rect x="341.5" y="206.5" class="st2" width="1201" height="435"/>
	<path d="M1542,207v434H342V207H1542 M1543,206H341v436h1202V206L1543,206z"/>
</g>
<text transform="matrix(1 0 0 1 355.4429 295.1265)" class="st4 st8">Studying</text>
<text transform="matrix(1 0 0 1 348.1895 336.7586)" class="st4 st8">Videogames</text>
<text transform="matrix(1 0 0 1 355.0895 378.7696)" class="st4 st8">Cooking</text>
<text transform="matrix(1 0 0 1 348.2341 422.7699)" class="st4 st8">Watching Football</text>
<text transform="matrix(1 0 0 1 348.6549 466.7697)" class="st4 st8">Exercising</text>
<text transform="matrix(1 0 0 1 348.2805 511.7587)" class="st4 st8">Reading News</text>
<text transform="matrix(1 0 0 1 348.5713 557.7697)" class="st4 st8">Web Surfing</text>
<text transform="matrix(1 0 0 1 348.2704 597.7698)" class="st4 st8">Friends</text>
<rect x="572" y="268" class="st0" width="928" height="362"/>
<text transform="matrix(1 0 0 1 594.0084 233.7698)" class="st4 st8">Week One</text>
<text transform="matrix(1 0 0 1 824.9303 233.7696)" class="st4 st8">Week Two</text>
<text transform="matrix(1 0 0 1 1059.5242 233.7699)" class="st4 st8">Week Three</text>
<text transform="matrix(1 0 0 1 1291.448 233.7697)" class="st4 st8">Week Four</text>
<text transform="matrix(1 0 0 1 1507.8232 291.6201)" class="st9 st8">1</text>
<text transform="matrix(1 0 0 1 1507.6052 377.5347)" class="st9 st8">3</text>
<text transform="matrix(1 0 0 1 1507.6052 330.5347)" class="st9 st8">2</text>
<text transform="matrix(1 0 0 1 1507.6052 421.5347)" class="st9 st8">4</text>
<text transform="matrix(1 0 0 1 1507.6052 463.5347)" class="st9 st8">5</text>
<text transform="matrix(1 0 0 1 1507.6052 508.5347)" class="st9 st8">6</text>
<text transform="matrix(1 0 0 1 1507.6052 551.5347)" class="st9 st8">7</text>
<path class="st10" d="M660.5,275.5c57.39,105.04,137.2,215.35,226,210.07c100.44-5.98,137.22-155.39,234-160.7
	c56.55-3.1,136.1,42.86,239,253.13"/>
<circle class="st11" cx="661" cy="280" r="12.5"/>
<circle class="st11" cx="883" cy="489" r="12.5"/>
<circle class="st11" cx="1128" cy="324" r="12.5"/>
<circle class="st11" cx="1360" cy="578" r="12.5"/>
<g>
	<rect x="709.5" y="718.5" class="st2" width="438" height="303"/>
	<path d="M1147,719v302H710V719H1147 M1148,718H709v304h439V718L1148,718z"/>
</g>
<text transform="matrix(1 0 0 1 906.5571 742.3926)" class="st4 st8">Overall</text>
<text transform="matrix(1 0 0 1 726.0084 779.7698)" class="st4 st8">Studying</text>
<text transform="matrix(1 0 0 1 726.0895 814.7696)" class="st4 st8">Videogames</text>
<text transform="matrix(1 0 0 1 726.2341 842.7699)" class="st4 st8">Cooking</text>
<text transform="matrix(1 0 0 1 726.6549 876.7697)" class="st4 st8">Watching Football</text>
<text transform="matrix(1 0 0 1 726.2805 911.7587)" class="st4 st8">Exercising</text>
<text transform="matrix(1 0 0 1 725.5713 942.7697)" class="st4 st8">Reading News</text>
<text transform="matrix(1 0 0 1 725.8453 974.77)" class="st4 st8">Web Surfing</text>
<text transform="matrix(1 0 0 1 727.1142 1006.7699)" class="st4 st8">Friends</text>
<text transform="matrix(1 0 0 1 1035.6052 779.5347)" class="st9 st8">1</text>
<text transform="matrix(1 0 0 1 1035.6329 1006.5347)" class="st9 st8">2</text>
<text transform="matrix(1 0 0 1 1035.6051 974.5347)" class="st9 st8">3</text>
<text transform="matrix(1 0 0 1 1035.6051 942.5347)" class="st9 st8">4</text>
<text transform="matrix(1 0 0 1 1035.6051 814.5347)" class="st9 st8">5</text>
<text transform="matrix(1 0 0 1 1035.6051 876.5344)" class="st9 st8">6</text>
<text transform="matrix(1 0 0 1 1035.6051 911.5342)" class="st9 st8">7</text>
<text transform="matrix(1 0 0 1 1035.605 842.5349)" class="st9 st8">8</text>
<text transform="matrix(1 0 0 1 1506.418 590.8857)" class="st9 st8">8</text>
</svg>
