<?xml version="1.0" encoding="utf-8"?>
<!-- Generator: Adobe Illustrator 23.1.0, SVG Export Plug-In . SVG Version: 6.00 Build 0)  -->
<svg version="1.1" id="Layer_1" xmlns="http://www.w3.org/2000/svg" xmlns:xlink="http://www.w3.org/1999/xlink" x="0px" y="0px"
	 viewBox="0 0 1920 1080" style="enable-background:new 0 0 1920 1080;" xml:space="preserve">
<style type="text/css">
	.st0{fill:none;}
	.st1{fill:#FFFFFF;stroke:#FFFFFF;stroke-miterlimit:10;}
	.st2{font-family:'MyriadPro-Regular';}
	.st3{font-size:33px;}
	.st4{font-size:17px;}
	.st5{fill:#FFFFFF;}
	.st6{fill:none;stroke:#000000;stroke-miterlimit:10;}
	.st7{stroke:#000000;stroke-miterlimit:10;}
	.st8{fill:#FFFFFF;stroke:#000000;stroke-miterlimit:10;}
	.st9{fill:#0071BC;}
	.st10{stroke:#000000;stroke-width:5;stroke-miterlimit:10;}
	.st11{fill:#F7931E;stroke:#000000;stroke-width:5;stroke-miterlimit:10;}
	.st12{fill:#29ABE2;stroke:#000000;stroke-miterlimit:10;}
	.st13{fill:#ED1C24;}
	.st14{font-size:22px;}
	.st15{fill:#29ABE2;}
</style>
<g>
	<rect x="42.5" y="37.5" width="1834" height="989"/>
	<path d="M1876,38v988H43V38H1876 M1877,37H42v990h1835V37L1877,37z"/>
</g>
<rect x="623.93" y="91.58" class="st0" width="652.8" height="34.13"/>
<text transform="matrix(1 0 0 1 657.9585 115.0073)" class="st1 st2 st3">What’s the weather in Misha’s  Apartment?</text>
<rect x="658.5" y="180.5" class="st1" width="572" height="41"/>
<text transform="matrix(1 0 0 1 671.3335 203.311)" class="st2 st4">Brrrrrr..... The temperature has averaged 62 degrees Farenheit for the past hour.</text>
<g>
	<rect x="463.5" y="243.5" class="st5" width="970" height="199"/>
	<path d="M1433,244v198H464V244H1433 M1434,243H463v200h971V243L1434,243z"/>
</g>
<g>
	<line class="st6" x1="520.5" y1="263.5" x2="520.5" y2="422.5"/>
</g>
<g>
	<line class="st6" x1="520.5" y1="422.5" x2="1369.5" y2="422.5"/>
</g>
<line class="st7" x1="520.5" y1="263.5" x2="1369.5" y2="263.5"/>
<rect x="574.5" y="465.5" class="st8" width="689" height="75"/>
<text transform="matrix(1 0 0 1 582.0669 488.0444)"><tspan x="0" y="0" class="st2 st4">The temperature today is -% higher/lower than the same day last week. </tspan><tspan x="0" y="20.4" class="st2 st4">Since the same day last week, the weather outside has gotten 2 degrees colder. </tspan><tspan x="0" y="40.8" class="st2 st4">Since last month, the temperature in the apartment has averaged 2.5 degrees colder than today.</tspan></text>
<g>
	<circle class="st9" cx="404.5" cy="752.5" r="115"/>
	<path d="M404.5,638c30.58,0,59.34,11.91,80.96,33.54C507.09,693.16,519,721.92,519,752.5s-11.91,59.34-33.54,80.96
		C463.84,855.09,435.08,867,404.5,867s-59.34-11.91-80.96-33.54C301.91,811.84,290,783.08,290,752.5s11.91-59.34,33.54-80.96
		C345.16,649.91,373.92,638,404.5,638 M404.5,637C340.71,637,289,688.71,289,752.5S340.71,868,404.5,868S520,816.29,520,752.5
		S468.29,637,404.5,637L404.5,637z"/>
</g>
<g>
	<rect x="323.5" y="735.5" class="st5" width="162" height="34"/>
	<path d="M485,736v33H324v-33H485 M486,735H323v35h163V735L486,735z"/>
</g>
<line class="st10" x1="529.5" y1="313.5" x2="624.5" y2="313.5"/>
<line class="st10" x1="691.5" y1="387.5" x2="827.5" y2="387.5"/>
<line class="st11" x1="849.5" y1="330.5" x2="966.5" y2="330.5"/>
<line class="st10" x1="997.5" y1="356.5" x2="1098.5" y2="356.5"/>
<line class="st10" x1="1172.5" y1="333.5" x2="1263.5" y2="333.5"/>
<line class="st10" x1="1317.5" y1="387.5" x2="1369.5" y2="387.5"/>
<line class="st7" x1="624.5" y1="313.5" x2="691.5" y2="387.5"/>
<line class="st7" x1="827.5" y1="387.5" x2="849.5" y2="330.5"/>
<line class="st7" x1="966.5" y1="330.5" x2="997.5" y2="356.5"/>
<line class="st7" x1="1263.5" y1="333.5" x2="1317.5" y2="387.5"/>
<line class="st7" x1="623.5" y1="263.5" x2="624.5" y2="422.5"/>
<line class="st7" x1="690.5" y1="260" x2="691.5" y2="419"/>
<line class="st7" x1="826.5" y1="265" x2="827.5" y2="424"/>
<line class="st7" x1="848.5" y1="264" x2="849.5" y2="423"/>
<line class="st7" x1="965.5" y1="265" x2="966.5" y2="424"/>
<line class="st7" x1="993.5" y1="264" x2="994.5" y2="423"/>
<line class="st7" x1="1097.5" y1="262" x2="1098.5" y2="421"/>
<line class="st7" x1="1171.5" y1="263" x2="1172.5" y2="422"/>
<line class="st7" x1="1264.5" y1="262" x2="1265.5" y2="421"/>
<line class="st7" x1="1313.5" y1="265" x2="1314.5" y2="424"/>
<path class="st7" d="M573.5,333.5"/>
<line class="st7" x1="1098.5" y1="356.5" x2="1172.5" y2="333.5"/>
<path class="st12" d="M533.5,375.5c9.38-57.17,18.38-94.4,26-94c12.97,0.68,15.92,110.16,23,110c7.09-0.16,9.64-110,15-110
	c5.27,0,6.34,106.11,19,107c10.56,0.75,23.2-72.23,32-71c7.21,1,1.8,50.37,15,54c13.78,3.79,36.33-45.42,48-41
	c7.52,2.85,2.81,25.08,11,28c9.54,3.4,23.61-24.04,32-21c10.04,3.64-5.28,44.68,14,61c7.28,6.17,19.01,8.38,25,4
	c6.38-4.66,3.12-14.46,5-38c1.52-19.06,5.54-36.09,8-36c3.15,0.12-2.71,28.01,13,44c11.72,11.93,33.78,15.53,44,7
	c6.6-5.51,3.65-12.23,9-31c5.3-18.6,16.48-41.04,24-40c6.53,0.91,3.17,18.51,17,33c7.44,7.8,22.05,17.01,33,13
	c19.8-7.25,11.68-51.95,27-56c11.36-3.01,29.31,18.02,38,36c11.16,23.1,5.78,38.55,19,47c9.86,6.31,22.65,3.97,28,3
	c2.49-0.45,15.14-2.95,26-13c23.65-21.88,14.4-56.94,27-60c6.3-1.53,13.54,6.05,24,17c10.83,11.34,10.39,15.56,18,24
	c13.04,14.45,37.09,27.27,51,20c10.92-5.71,9-20.36,18-22c6.92-1.26,11.39,6.8,25,18c10.98,9.03,25.52,21,39,21
	c20.58,0.01,24.45-38.31,41-38c12.23,0.23,16.24,19.93,28,20c11.03,0.07,20.33-17.19,27-34"/>
<g>
	<rect x="1434.5" y="662.5" class="st13" width="239" height="219"/>
	<path d="M1673,663v218h-238V663H1673 M1674,662h-240v220h240V662L1674,662z"/>
</g>
<g>
	<rect x="1540.5" y="690.5" class="st5" width="28" height="156"/>
	<path d="M1568,691v155h-27V691H1568 M1569,690h-29v157h29V690L1569,690z"/>
</g>
<g>
	<rect x="1476.5" y="748.5" class="st5" width="156" height="28"/>
	<path d="M1632,749v27h-155v-27H1632 M1633,748h-157v29h157V748L1633,748z"/>
</g>
<g>
	<rect x="573.5" y="736.5" class="st5" width="807" height="38"/>
	<path d="M1380,737v37H574v-37H1380 M1381,736H573v39h808V736L1381,736z"/>
</g>
<g>
	<rect x="759.5" y="619.5" class="st5" width="308" height="42"/>
	<path d="M1067,620v41H760v-41H1067 M1068,619H759v43h309V619L1068,619z"/>
</g>
<text transform="matrix(1 0 0 1 793.0444 649.6885)" class="st2 st14">Trend this week: COLDER!!!!!!</text>
<g>
	<circle class="st15" cx="762.5" cy="756.5" r="35"/>
	<path d="M762.5,722c19.02,0,34.5,15.48,34.5,34.5S781.52,791,762.5,791S728,775.52,728,756.5S743.48,722,762.5,722 M762.5,721
		c-19.61,0-35.5,15.89-35.5,35.5s15.89,35.5,35.5,35.5s35.5-15.89,35.5-35.5S782.11,721,762.5,721L762.5,721z"/>
</g>
</svg>
